<svg xmlns="http://www.w3.org/2000/svg" xmlns:xlink="http://www.w3.org/1999/xlink" width="500" zoomAndPan="magnify" viewBox="0 0 375 374.999991" height="500" preserveAspectRatio="xMidYMid meet" version="1.0"><defs><g/><clipPath id="21ca5bbaf4"><path d="M 245 114 L 258 114 L 258 125 L 245 125 Z M 245 114 " clip-rule="nonzero"/></clipPath><clipPath id="03a0027091"><path d="M 258.734375 117.070312 L 257.003906 126.5 L 245.546875 124.398438 L 247.277344 114.96875 Z M 258.734375 117.070312 " clip-rule="nonzero"/></clipPath><clipPath id="fbef328a47"><path d="M 257.871094 121.785156 L 245.550781 124.398438 L 247.277344 114.96875 Z M 257.871094 121.785156 " clip-rule="nonzero"/></clipPath></defs><g fill="#000000" fill-opacity="1"><g transform="translate(37.500002, 219.862354)"><g><path d="M 53.0625 -10.875 C 60.21875 -10.875 66.546875 -12.050781 72.046875 -14.40625 C 77.546875 -16.769531 81.78125 -19.566406 84.75 -22.796875 C 85.800781 -22.796875 86.476562 -22.53125 86.78125 -22 C 87.09375 -21.476562 87.160156 -20.78125 86.984375 -19.90625 C 86.628906 -18.25 85.382812 -16.285156 83.25 -14.015625 C 81.113281 -11.742188 78.234375 -9.535156 74.609375 -7.390625 C 70.984375 -5.253906 66.769531 -3.488281 61.96875 -2.09375 C 57.164062 -0.695312 51.878906 0 46.109375 0 C 38.691406 0 31.988281 -1.632812 26 -4.90625 C 20.019531 -8.1875 15.28125 -12.859375 11.78125 -18.921875 C 8.289062 -24.992188 6.546875 -32.265625 6.546875 -40.734375 C 6.546875 -49.378906 7.789062 -57.21875 10.28125 -64.25 C 12.769531 -71.28125 16.238281 -77.328125 20.6875 -82.390625 C 25.144531 -87.460938 30.300781 -91.375 36.15625 -94.125 C 42.007812 -96.875 48.34375 -98.25 55.15625 -98.25 C 60.65625 -98.25 65.257812 -97.203125 68.96875 -95.109375 C 72.675781 -93.015625 75.46875 -90.285156 77.34375 -86.921875 C 79.226562 -83.554688 80.171875 -79.910156 80.171875 -75.984375 C 80.171875 -71.878906 79.40625 -68.40625 77.875 -65.5625 C 76.351562 -62.726562 74.367188 -60.585938 71.921875 -59.140625 C 69.472656 -57.703125 66.894531 -56.984375 64.1875 -56.984375 C 62.09375 -56.984375 60.410156 -57.351562 59.140625 -58.09375 C 57.878906 -58.84375 56.984375 -59.585938 56.453125 -60.328125 C 55.929688 -61.066406 55.671875 -61.4375 55.671875 -61.4375 C 55.671875 -61.4375 56.171875 -61.71875 57.171875 -62.28125 C 58.179688 -62.851562 59.316406 -63.835938 60.578125 -65.234375 C 61.847656 -66.628906 62.984375 -68.523438 63.984375 -70.921875 C 64.992188 -73.328125 65.5 -76.367188 65.5 -80.046875 C 65.5 -83.535156 64.515625 -86.238281 62.546875 -88.15625 C 60.585938 -90.082031 57.992188 -91.046875 54.765625 -91.046875 C 51.003906 -91.046875 47.332031 -89.78125 43.75 -87.25 C 40.175781 -84.71875 36.96875 -81.203125 34.125 -76.703125 C 31.289062 -72.203125 29.019531 -67.003906 27.3125 -61.109375 C 25.613281 -55.210938 24.765625 -48.90625 24.765625 -42.1875 C 24.765625 -32.132812 27.296875 -24.398438 32.359375 -18.984375 C 37.421875 -13.578125 44.320312 -10.875 53.0625 -10.875 Z M 53.0625 -10.875 "/></g></g></g><path stroke-linecap="butt" transform="matrix(0.131331, -0.738412, 0.738412, 0.131331, 241.898338, 146.990278)" fill="none" stroke-linejoin="miter" d="M -0.00130774 2.000013 L 34.944968 2.000455 " stroke="#000000" stroke-width="4" stroke-opacity="1" stroke-miterlimit="4"/><g clip-path="url(#21ca5bbaf4)"><g clip-path="url(#03a0027091)"><g clip-path="url(#fbef328a47)"><path fill="#ff3131" d="M 258.734375 117.070312 L 257.003906 126.5 L 245.546875 124.398438 L 247.277344 114.96875 Z M 258.734375 117.070312 " fill-opacity="1" fill-rule="nonzero"/></g></g></g><g fill="#000000" fill-opacity="1"><g transform="translate(123.328085, 224.18086)"><g><path d="M 14.078125 0.4375 C 12.328125 0.4375 10.710938 0.132812 9.234375 -0.46875 C 7.765625 -1.082031 6.488281 -1.9375 5.40625 -3.03125 C 4.320312 -4.132812 3.476562 -5.441406 2.875 -6.953125 C 2.269531 -8.460938 1.96875 -10.113281 1.96875 -11.90625 C 1.96875 -13.695312 2.257812 -15.335938 2.84375 -16.828125 C 3.4375 -18.328125 4.273438 -19.628906 5.359375 -20.734375 C 6.453125 -21.847656 7.726562 -22.707031 9.1875 -23.3125 C 10.65625 -23.925781 12.265625 -24.234375 14.015625 -24.234375 C 15.828125 -24.234375 17.503906 -23.90625 19.046875 -23.25 C 20.585938 -22.59375 21.914062 -21.675781 23.03125 -20.5 C 24.15625 -19.320312 24.96875 -17.953125 25.46875 -16.390625 L 22.203125 -16.390625 C 21.453125 -17.929688 20.375 -19.125 18.96875 -19.96875 C 17.5625 -20.820312 15.941406 -21.25 14.109375 -21.25 C 12.335938 -21.25 10.765625 -20.851562 9.390625 -20.0625 C 8.023438 -19.269531 6.957031 -18.171875 6.1875 -16.765625 C 5.414062 -15.359375 5.03125 -13.738281 5.03125 -11.90625 C 5.03125 -10.0625 5.421875 -8.4375 6.203125 -7.03125 C 6.984375 -5.632812 8.054688 -4.535156 9.421875 -3.734375 C 10.796875 -2.941406 12.367188 -2.546875 14.140625 -2.546875 C 15.753906 -2.546875 17.179688 -2.863281 18.421875 -3.5 C 19.671875 -4.132812 20.6875 -5.007812 21.46875 -6.125 C 22.25 -7.25 22.742188 -8.5625 22.953125 -10.0625 L 13.265625 -10.0625 L 13.265625 -12.921875 L 26.1875 -12.921875 C 26.226562 -10.316406 25.742188 -8.007812 24.734375 -6 C 23.722656 -3.988281 22.304688 -2.410156 20.484375 -1.265625 C 18.660156 -0.128906 16.523438 0.4375 14.078125 0.4375 Z M 14.078125 0.4375 "/></g></g></g><g fill="#000000" fill-opacity="1"><g transform="translate(151.374874, 224.18086)"><g><path d="M 11.125 0.4375 C 9.28125 0.4375 7.65625 0.0390625 6.25 -0.75 C 4.84375 -1.539062 3.742188 -2.640625 2.953125 -4.046875 C 2.160156 -5.453125 1.765625 -7.050781 1.765625 -8.84375 C 1.765625 -10.65625 2.160156 -12.25 2.953125 -13.625 C 3.742188 -15.007812 4.84375 -16.097656 6.25 -16.890625 C 7.65625 -17.691406 9.28125 -18.09375 11.125 -18.09375 C 12.957031 -18.09375 14.578125 -17.691406 15.984375 -16.890625 C 17.390625 -16.097656 18.488281 -15.007812 19.28125 -13.625 C 20.070312 -12.25 20.46875 -10.65625 20.46875 -8.84375 C 20.46875 -7.050781 20.070312 -5.453125 19.28125 -4.046875 C 18.488281 -2.640625 17.390625 -1.539062 15.984375 -0.75 C 14.578125 0.0390625 12.957031 0.4375 11.125 0.4375 Z M 4.625 -8.84375 C 4.625 -7.550781 4.898438 -6.410156 5.453125 -5.421875 C 6.015625 -4.429688 6.78125 -3.664062 7.75 -3.125 C 8.726562 -2.582031 9.851562 -2.3125 11.125 -2.3125 C 12.382812 -2.3125 13.503906 -2.582031 14.484375 -3.125 C 15.460938 -3.664062 16.226562 -4.429688 16.78125 -5.421875 C 17.332031 -6.410156 17.609375 -7.550781 17.609375 -8.84375 C 17.609375 -10.132812 17.332031 -11.265625 16.78125 -12.234375 C 16.226562 -13.210938 15.460938 -13.976562 14.484375 -14.53125 C 13.503906 -15.09375 12.382812 -15.375 11.125 -15.375 C 9.851562 -15.375 8.726562 -15.09375 7.75 -14.53125 C 6.78125 -13.976562 6.015625 -13.210938 5.453125 -12.234375 C 4.898438 -11.265625 4.625 -10.132812 4.625 -8.84375 Z M 4.625 -8.84375 "/></g></g></g><g fill="#000000" fill-opacity="1"><g transform="translate(173.608328, 224.18086)"><g><path d="M 3.15625 0 L 3.15625 -25.15625 L 6.015625 -25.15625 L 6.015625 0 Z M 3.15625 0 "/></g></g></g><g fill="#000000" fill-opacity="1"><g transform="translate(182.787279, 224.18086)"><g><path d="M 4.859375 -19.453125 C 4.859375 -21.460938 5.382812 -22.988281 6.4375 -24.03125 C 7.5 -25.082031 9.023438 -25.609375 11.015625 -25.609375 L 14.046875 -25.609375 L 14.046875 -22.921875 L 11.28125 -22.921875 C 10.039062 -22.921875 9.132812 -22.628906 8.5625 -22.046875 C 8 -21.472656 7.71875 -20.550781 7.71875 -19.28125 L 7.71875 -17.640625 L 13.875 -17.640625 L 13.875 -15.03125 L 7.71875 -15.03125 L 7.71875 0 L 4.859375 0 L 4.859375 -15.03125 L 1.015625 -15.03125 L 1.015625 -17.640625 L 4.859375 -17.640625 Z M 4.859375 -19.453125 "/></g></g></g><g fill="#000000" fill-opacity="1"><g transform="translate(197.167626, 224.18086)"><g/></g></g><g fill="#000000" fill-opacity="1"><g transform="translate(205.59866, 224.18086)"><g><path d="M 19.078125 0 L 19.078125 -10.703125 L 6.453125 -10.703125 L 6.453125 0 L 3.46875 0 L 3.46875 -23.796875 L 6.453125 -23.796875 L 6.453125 -13.5625 L 19.078125 -13.5625 L 19.078125 -23.796875 L 22.0625 -23.796875 L 22.0625 0 Z M 19.078125 0 "/></g></g></g><g fill="#000000" fill-opacity="1"><g transform="translate(231.129729, 224.18086)"><g><path d="M 11.125 0.4375 C 9.28125 0.4375 7.65625 0.0390625 6.25 -0.75 C 4.84375 -1.539062 3.742188 -2.640625 2.953125 -4.046875 C 2.160156 -5.453125 1.765625 -7.050781 1.765625 -8.84375 C 1.765625 -10.65625 2.160156 -12.25 2.953125 -13.625 C 3.742188 -15.007812 4.84375 -16.097656 6.25 -16.890625 C 7.65625 -17.691406 9.28125 -18.09375 11.125 -18.09375 C 12.957031 -18.09375 14.578125 -17.691406 15.984375 -16.890625 C 17.390625 -16.097656 18.488281 -15.007812 19.28125 -13.625 C 20.070312 -12.25 20.46875 -10.65625 20.46875 -8.84375 C 20.46875 -7.050781 20.070312 -5.453125 19.28125 -4.046875 C 18.488281 -2.640625 17.390625 -1.539062 15.984375 -0.75 C 14.578125 0.0390625 12.957031 0.4375 11.125 0.4375 Z M 4.625 -8.84375 C 4.625 -7.550781 4.898438 -6.410156 5.453125 -5.421875 C 6.015625 -4.429688 6.78125 -3.664062 7.75 -3.125 C 8.726562 -2.582031 9.851562 -2.3125 11.125 -2.3125 C 12.382812 -2.3125 13.503906 -2.582031 14.484375 -3.125 C 15.460938 -3.664062 16.226562 -4.429688 16.78125 -5.421875 C 17.332031 -6.410156 17.609375 -7.550781 17.609375 -8.84375 C 17.609375 -10.132812 17.332031 -11.265625 16.78125 -12.234375 C 16.226562 -13.210938 15.460938 -13.976562 14.484375 -14.53125 C 13.503906 -15.09375 12.382812 -15.375 11.125 -15.375 C 9.851562 -15.375 8.726562 -15.09375 7.75 -14.53125 C 6.78125 -13.976562 6.015625 -13.210938 5.453125 -12.234375 C 4.898438 -11.265625 4.625 -10.132812 4.625 -8.84375 Z M 4.625 -8.84375 "/></g></g></g><g fill="#000000" fill-opacity="1"><g transform="translate(253.363184, 224.18086)"><g><path d="M 3.15625 0 L 3.15625 -17.640625 L 5.515625 -17.640625 L 5.78125 -15.4375 C 7.132812 -17.207031 9.050781 -18.09375 11.53125 -18.09375 C 12.9375 -18.09375 14.171875 -17.796875 15.234375 -17.203125 C 16.296875 -16.609375 17.125 -15.75 17.71875 -14.625 C 19.144531 -16.9375 21.332031 -18.09375 24.28125 -18.09375 C 26.5 -18.09375 28.269531 -17.375 29.59375 -15.9375 C 30.914062 -14.507812 31.578125 -12.5625 31.578125 -10.09375 L 31.578125 0 L 28.734375 0 L 28.734375 -9.625 C 28.734375 -11.363281 28.296875 -12.753906 27.421875 -13.796875 C 26.546875 -14.847656 25.375 -15.375 23.90625 -15.375 C 22.382812 -15.375 21.148438 -14.828125 20.203125 -13.734375 C 19.265625 -12.648438 18.796875 -11.203125 18.796875 -9.390625 L 18.796875 0 L 15.953125 0 L 15.953125 -9.625 C 15.953125 -11.363281 15.515625 -12.753906 14.640625 -13.796875 C 13.765625 -14.847656 12.59375 -15.375 11.125 -15.375 C 9.601562 -15.375 8.367188 -14.828125 7.421875 -13.734375 C 6.484375 -12.648438 6.015625 -11.203125 6.015625 -9.390625 L 6.015625 0 Z M 3.15625 0 "/></g></g></g><g fill="#000000" fill-opacity="1"><g transform="translate(287.767246, 224.18086)"><g><path d="M 10.8125 0.4375 C 9.039062 0.4375 7.472656 0.046875 6.109375 -0.734375 C 4.753906 -1.515625 3.691406 -2.609375 2.921875 -4.015625 C 2.148438 -5.421875 1.765625 -7.03125 1.765625 -8.84375 C 1.765625 -10.65625 2.148438 -12.253906 2.921875 -13.640625 C 3.691406 -15.035156 4.757812 -16.125 6.125 -16.90625 C 7.5 -17.695312 9.070312 -18.09375 10.84375 -18.09375 C 12.726562 -18.09375 14.359375 -17.648438 15.734375 -16.765625 C 17.117188 -15.878906 18.179688 -14.660156 18.921875 -13.109375 C 19.660156 -11.554688 19.992188 -9.75 19.921875 -7.6875 L 4.65625 -7.6875 C 4.882812 -6.03125 5.550781 -4.707031 6.65625 -3.71875 C 7.769531 -2.738281 9.164062 -2.25 10.84375 -2.25 C 12 -2.25 13.050781 -2.492188 14 -2.984375 C 14.957031 -3.484375 15.707031 -4.203125 16.25 -5.140625 L 19.484375 -5.140625 C 18.773438 -3.410156 17.648438 -2.046875 16.109375 -1.046875 C 14.566406 -0.0546875 12.800781 0.4375 10.8125 0.4375 Z M 4.6875 -10.203125 L 17.0625 -10.203125 C 16.769531 -11.804688 16.0625 -13.070312 14.9375 -14 C 13.820312 -14.9375 12.457031 -15.40625 10.84375 -15.40625 C 9.207031 -15.40625 7.832031 -14.925781 6.71875 -13.96875 C 5.613281 -13.019531 4.9375 -11.765625 4.6875 -10.203125 Z M 4.6875 -10.203125 "/></g></g></g><g fill="#000000" fill-opacity="1"><g transform="translate(309.388773, 224.18086)"><g><path d="M 9.546875 0.4375 C 7.242188 0.4375 5.394531 -0.109375 4 -1.203125 C 2.601562 -2.304688 1.882812 -3.753906 1.84375 -5.546875 L 4.65625 -5.546875 C 4.695312 -4.472656 5.148438 -3.628906 6.015625 -3.015625 C 6.878906 -2.410156 8.070312 -2.109375 9.59375 -2.109375 C 10.925781 -2.109375 11.976562 -2.335938 12.75 -2.796875 C 13.519531 -3.265625 13.90625 -3.894531 13.90625 -4.6875 C 13.90625 -5.476562 13.5 -6.125 12.6875 -6.625 C 11.882812 -7.125 10.625 -7.519531 8.90625 -7.8125 C 6.644531 -8.195312 4.960938 -8.820312 3.859375 -9.6875 C 2.753906 -10.550781 2.203125 -11.675781 2.203125 -13.0625 C 2.203125 -14.644531 2.804688 -15.878906 4.015625 -16.765625 C 5.234375 -17.648438 6.910156 -18.09375 9.046875 -18.09375 C 11.222656 -18.09375 12.960938 -17.609375 14.265625 -16.640625 C 15.566406 -15.679688 16.273438 -14.328125 16.390625 -12.578125 L 13.5625 -12.578125 C 13.476562 -13.554688 13.039062 -14.300781 12.25 -14.8125 C 11.46875 -15.320312 10.410156 -15.578125 9.078125 -15.578125 C 7.804688 -15.578125 6.8125 -15.351562 6.09375 -14.90625 C 5.382812 -14.46875 5.03125 -13.851562 5.03125 -13.0625 C 5.03125 -12.3125 5.390625 -11.722656 6.109375 -11.296875 C 6.835938 -10.878906 8.125 -10.488281 9.96875 -10.125 C 14.476562 -9.25 16.734375 -7.414062 16.734375 -4.625 C 16.734375 -3.101562 16.078125 -1.878906 14.765625 -0.953125 C 13.460938 -0.0234375 11.722656 0.4375 9.546875 0.4375 Z M 9.546875 0.4375 "/></g></g></g><g fill="#000000" fill-opacity="1"><g transform="translate(105.032327, 193.91661)"><g><path d="M 12.484375 0.359375 C 9.460938 0.359375 7.050781 -0.734375 5.25 -2.921875 C 3.457031 -5.109375 2.5625 -7.976562 2.5625 -11.53125 C 2.5625 -15.425781 3.457031 -19.113281 5.25 -22.59375 C 7.050781 -26.082031 9.445312 -28.882812 12.4375 -31 C 15.4375 -33.113281 18.617188 -34.171875 21.984375 -34.171875 C 23.054688 -34.171875 23.773438 -33.960938 24.140625 -33.546875 C 24.503906 -33.140625 24.804688 -32.398438 25.046875 -31.328125 C 26.066406 -31.523438 27.140625 -31.625 28.265625 -31.625 C 30.648438 -31.625 31.84375 -30.769531 31.84375 -29.0625 C 31.84375 -28.039062 31.476562 -25.609375 30.75 -21.765625 C 29.625 -16.160156 29.0625 -12.265625 29.0625 -10.078125 C 29.0625 -9.347656 29.242188 -8.765625 29.609375 -8.328125 C 29.972656 -7.890625 30.445312 -7.671875 31.03125 -7.671875 C 31.957031 -7.671875 33.078125 -8.265625 34.390625 -9.453125 C 35.710938 -10.648438 37.492188 -12.585938 39.734375 -15.265625 C 40.316406 -15.941406 40.972656 -16.28125 41.703125 -16.28125 C 42.335938 -16.28125 42.835938 -15.988281 43.203125 -15.40625 C 43.566406 -14.820312 43.75 -14.019531 43.75 -13 C 43.75 -11.050781 43.285156 -9.539062 42.359375 -8.46875 C 40.359375 -5.988281 38.238281 -3.894531 36 -2.1875 C 33.757812 -0.488281 31.59375 0.359375 29.5 0.359375 C 27.894531 0.359375 26.421875 -0.1875 25.078125 -1.28125 C 23.742188 -2.375 22.738281 -3.867188 22.0625 -5.765625 C 19.519531 -1.679688 16.328125 0.359375 12.484375 0.359375 Z M 15.125 -7.015625 C 16.1875 -7.015625 17.203125 -7.644531 18.171875 -8.90625 C 19.148438 -10.175781 19.859375 -11.859375 20.296875 -13.953125 L 23 -27.390625 C 20.957031 -27.335938 19.070312 -26.566406 17.34375 -25.078125 C 15.613281 -23.597656 14.238281 -21.640625 13.21875 -19.203125 C 12.195312 -16.773438 11.6875 -14.195312 11.6875 -11.46875 C 11.6875 -9.957031 11.988281 -8.835938 12.59375 -8.109375 C 13.207031 -7.378906 14.050781 -7.015625 15.125 -7.015625 Z M 15.125 -7.015625 "/></g></g></g><g fill="#000000" fill-opacity="1"><g transform="translate(139.351519, 193.91661)"><g><path d="M 8.6875 0.359375 C 6.84375 0.359375 5.539062 -0.613281 4.78125 -2.5625 C 4.03125 -4.507812 3.65625 -7.625 3.65625 -11.90625 C 3.65625 -18.226562 4.554688 -24.238281 6.359375 -29.9375 C 6.796875 -31.351562 7.507812 -32.390625 8.5 -33.046875 C 9.5 -33.703125 10.898438 -34.03125 12.703125 -34.03125 C 13.679688 -34.03125 14.363281 -33.90625 14.75 -33.65625 C 15.144531 -33.414062 15.34375 -32.957031 15.34375 -32.28125 C 15.34375 -31.5 14.972656 -29.742188 14.234375 -27.015625 C 13.753906 -25.066406 13.367188 -23.363281 13.078125 -21.90625 C 12.785156 -20.445312 12.539062 -18.644531 12.34375 -16.5 C 13.945312 -20.6875 15.742188 -24.09375 17.734375 -26.71875 C 19.734375 -29.351562 21.695312 -31.226562 23.625 -32.34375 C 25.550781 -33.46875 27.316406 -34.03125 28.921875 -34.03125 C 32.085938 -34.03125 33.671875 -32.445312 33.671875 -29.28125 C 33.671875 -28.65625 33.453125 -27.125 33.015625 -24.6875 C 32.617188 -22.738281 32.421875 -21.519531 32.421875 -21.03125 C 32.421875 -19.332031 33.03125 -18.484375 34.25 -18.484375 C 35.613281 -18.484375 37.367188 -19.550781 39.515625 -21.6875 C 40.140625 -22.320312 40.796875 -22.640625 41.484375 -22.640625 C 42.117188 -22.640625 42.617188 -22.359375 42.984375 -21.796875 C 43.347656 -21.234375 43.53125 -20.492188 43.53125 -19.578125 C 43.53125 -17.773438 43.039062 -16.363281 42.0625 -15.34375 C 40.695312 -13.925781 39.101562 -12.71875 37.28125 -11.71875 C 35.457031 -10.71875 33.519531 -10.21875 31.46875 -10.21875 C 28.894531 -10.21875 26.9375 -10.875 25.59375 -12.1875 C 24.257812 -13.507812 23.59375 -15.289062 23.59375 -17.53125 C 23.59375 -18.257812 23.664062 -18.988281 23.8125 -19.71875 C 23.90625 -20.6875 23.953125 -21.34375 23.953125 -21.6875 C 23.953125 -22.46875 23.6875 -22.859375 23.15625 -22.859375 C 22.425781 -22.859375 21.460938 -22.039062 20.265625 -20.40625 C 19.078125 -18.78125 17.894531 -16.628906 16.71875 -13.953125 C 15.550781 -11.273438 14.601562 -8.453125 13.875 -5.484375 C 13.34375 -3.191406 12.722656 -1.644531 12.015625 -0.84375 C 11.304688 -0.0390625 10.195312 0.359375 8.6875 0.359375 Z M 8.6875 0.359375 "/></g></g></g><g fill="#000000" fill-opacity="1"><g transform="translate(172.575421, 193.91661)"><g><path d="M 40.75 -22.421875 C 41.382812 -22.421875 41.867188 -22.101562 42.203125 -21.46875 C 42.546875 -20.832031 42.71875 -20.03125 42.71875 -19.0625 C 42.71875 -16.726562 42.015625 -15.335938 40.609375 -14.890625 C 37.679688 -13.867188 34.46875 -13.285156 30.96875 -13.140625 C 30.039062 -9.054688 28.210938 -5.785156 25.484375 -3.328125 C 22.753906 -0.867188 19.664062 0.359375 16.21875 0.359375 C 13.289062 0.359375 10.789062 -0.34375 8.71875 -1.75 C 6.65625 -3.164062 5.085938 -5.039062 4.015625 -7.375 C 2.941406 -9.707031 2.40625 -12.238281 2.40625 -14.96875 C 2.40625 -18.664062 3.109375 -21.960938 4.515625 -24.859375 C 5.929688 -27.765625 7.878906 -30.03125 10.359375 -31.65625 C 12.847656 -33.289062 15.601562 -34.109375 18.625 -34.109375 C 22.320312 -34.109375 25.300781 -32.828125 27.5625 -30.265625 C 29.832031 -27.710938 31.160156 -24.5625 31.546875 -20.8125 C 33.835938 -20.957031 36.566406 -21.445312 39.734375 -22.28125 C 40.117188 -22.375 40.457031 -22.421875 40.75 -22.421875 Z M 16.796875 -7.375 C 18.359375 -7.375 19.707031 -8.003906 20.84375 -9.265625 C 21.988281 -10.535156 22.757812 -12.363281 23.15625 -14.75 C 21.644531 -15.769531 20.488281 -17.109375 19.6875 -18.765625 C 18.882812 -20.421875 18.484375 -22.175781 18.484375 -24.03125 C 18.484375 -24.8125 18.554688 -25.585938 18.703125 -26.359375 L 18.328125 -26.359375 C 16.378906 -26.359375 14.757812 -25.421875 13.46875 -23.546875 C 12.175781 -21.671875 11.53125 -19.03125 11.53125 -15.625 C 11.53125 -12.945312 12.050781 -10.898438 13.09375 -9.484375 C 14.144531 -8.078125 15.378906 -7.375 16.796875 -7.375 Z M 16.796875 -7.375 "/></g></g></g><g fill="#000000" fill-opacity="1"><g transform="translate(205.507246, 193.91661)"><g><path d="M 31.1875 -16.28125 C 31.820312 -16.28125 32.320312 -15.988281 32.6875 -15.40625 C 33.050781 -14.820312 33.234375 -14.019531 33.234375 -13 C 33.234375 -11.050781 32.769531 -9.539062 31.84375 -8.46875 C 29.75 -5.882812 27.472656 -3.765625 25.015625 -2.109375 C 22.554688 -0.460938 19.769531 0.359375 16.65625 0.359375 C 12.363281 0.359375 9.179688 -1.582031 7.109375 -5.46875 C 5.046875 -9.363281 4.015625 -14.40625 4.015625 -20.59375 C 4.015625 -26.53125 4.78125 -33.296875 6.3125 -40.890625 C 7.851562 -48.492188 10.117188 -55.019531 13.109375 -60.46875 C 16.097656 -65.925781 19.664062 -68.65625 23.8125 -68.65625 C 26.144531 -68.65625 27.976562 -67.570312 29.3125 -65.40625 C 30.65625 -63.238281 31.328125 -60.132812 31.328125 -56.09375 C 31.328125 -50.289062 29.71875 -43.566406 26.5 -35.921875 C 23.289062 -28.285156 18.9375 -20.71875 13.4375 -13.21875 C 13.78125 -11.21875 14.335938 -9.789062 15.109375 -8.9375 C 15.890625 -8.09375 16.914062 -7.671875 18.1875 -7.671875 C 20.175781 -7.671875 21.925781 -8.238281 23.4375 -9.375 C 24.945312 -10.519531 26.875 -12.484375 29.21875 -15.265625 C 29.800781 -15.941406 30.457031 -16.28125 31.1875 -16.28125 Z M 22.203125 -61.421875 C 21.078125 -61.421875 19.804688 -59.398438 18.390625 -55.359375 C 16.984375 -51.316406 15.742188 -46.300781 14.671875 -40.3125 C 13.609375 -34.320312 13.023438 -28.578125 12.921875 -23.078125 C 16.378906 -28.773438 19.128906 -34.484375 21.171875 -40.203125 C 23.222656 -45.921875 24.25 -51.144531 24.25 -55.875 C 24.25 -59.570312 23.566406 -61.421875 22.203125 -61.421875 Z M 22.203125 -61.421875 "/></g></g></g><g fill="#000000" fill-opacity="1"><g transform="translate(229.311619, 193.91661)"><g><path d="M 13.078125 -38.859375 C 11.023438 -38.859375 9.488281 -39.332031 8.46875 -40.28125 C 7.445312 -41.226562 6.9375 -42.550781 6.9375 -44.25 C 6.9375 -45.957031 7.601562 -47.382812 8.9375 -48.53125 C 10.28125 -49.675781 11.953125 -50.25 13.953125 -50.25 C 15.753906 -50.25 17.210938 -49.804688 18.328125 -48.921875 C 19.453125 -48.046875 20.015625 -46.804688 20.015625 -45.203125 C 20.015625 -43.253906 19.378906 -41.707031 18.109375 -40.5625 C 16.847656 -39.425781 15.171875 -38.859375 13.078125 -38.859375 Z M 12.484375 0.359375 C 9.316406 0.359375 7.015625 -0.757812 5.578125 -3 C 4.148438 -5.238281 3.4375 -8.207031 3.4375 -11.90625 C 3.4375 -14.09375 3.710938 -16.898438 4.265625 -20.328125 C 4.828125 -23.765625 5.546875 -26.96875 6.421875 -29.9375 C 6.859375 -31.5 7.441406 -32.570312 8.171875 -33.15625 C 8.910156 -33.738281 10.082031 -34.03125 11.6875 -34.03125 C 14.164062 -34.03125 15.40625 -33.203125 15.40625 -31.546875 C 15.40625 -30.328125 14.941406 -27.503906 14.015625 -23.078125 C 12.847656 -17.722656 12.265625 -14.097656 12.265625 -12.203125 C 12.265625 -10.734375 12.457031 -9.609375 12.84375 -8.828125 C 13.238281 -8.054688 13.898438 -7.671875 14.828125 -7.671875 C 15.703125 -7.671875 16.796875 -8.273438 18.109375 -9.484375 C 19.421875 -10.703125 21.175781 -12.628906 23.375 -15.265625 C 23.957031 -15.941406 24.613281 -16.28125 25.34375 -16.28125 C 25.976562 -16.28125 26.476562 -15.988281 26.84375 -15.40625 C 27.207031 -14.820312 27.390625 -14.019531 27.390625 -13 C 27.390625 -11.050781 26.925781 -9.539062 26 -8.46875 C 21.175781 -2.582031 16.671875 0.359375 12.484375 0.359375 Z M 12.484375 0.359375 "/></g></g></g><g fill="#000000" fill-opacity="1"><g transform="translate(247.274436, 193.91661)"><g><path d="M 8.6875 0.359375 C 6.84375 0.359375 5.539062 -0.613281 4.78125 -2.5625 C 4.03125 -4.507812 3.65625 -7.625 3.65625 -11.90625 C 3.65625 -18.226562 4.554688 -24.238281 6.359375 -29.9375 C 6.796875 -31.351562 7.507812 -32.390625 8.5 -33.046875 C 9.5 -33.703125 10.898438 -34.03125 12.703125 -34.03125 C 13.679688 -34.03125 14.363281 -33.90625 14.75 -33.65625 C 15.144531 -33.414062 15.34375 -32.957031 15.34375 -32.28125 C 15.34375 -31.5 14.972656 -29.742188 14.234375 -27.015625 C 13.753906 -25.066406 13.367188 -23.363281 13.078125 -21.90625 C 12.785156 -20.445312 12.539062 -18.644531 12.34375 -16.5 C 13.945312 -20.6875 15.742188 -24.09375 17.734375 -26.71875 C 19.734375 -29.351562 21.695312 -31.226562 23.625 -32.34375 C 25.550781 -33.46875 27.316406 -34.03125 28.921875 -34.03125 C 32.085938 -34.03125 33.671875 -32.445312 33.671875 -29.28125 C 33.671875 -27.382812 33.132812 -23.953125 32.0625 -18.984375 C 31.132812 -14.753906 30.671875 -11.957031 30.671875 -10.59375 C 30.671875 -8.644531 31.378906 -7.671875 32.796875 -7.671875 C 33.765625 -7.671875 34.914062 -8.265625 36.25 -9.453125 C 37.59375 -10.648438 39.382812 -12.585938 41.625 -15.265625 C 42.207031 -15.941406 42.863281 -16.28125 43.59375 -16.28125 C 44.226562 -16.28125 44.726562 -15.988281 45.09375 -15.40625 C 45.457031 -14.820312 45.640625 -14.019531 45.640625 -13 C 45.640625 -11.050781 45.175781 -9.539062 44.25 -8.46875 C 42.15625 -5.882812 39.90625 -3.765625 37.5 -2.109375 C 35.09375 -0.460938 32.351562 0.359375 29.28125 0.359375 C 26.800781 0.359375 24.925781 -0.351562 23.65625 -1.78125 C 22.394531 -3.21875 21.765625 -5.300781 21.765625 -8.03125 C 21.765625 -9.394531 22.101562 -11.832031 22.78125 -15.34375 C 23.414062 -18.40625 23.734375 -20.519531 23.734375 -21.6875 C 23.734375 -22.46875 23.46875 -22.859375 22.9375 -22.859375 C 22.300781 -22.859375 21.410156 -22.039062 20.265625 -20.40625 C 19.117188 -18.78125 17.945312 -16.628906 16.75 -13.953125 C 15.5625 -11.273438 14.601562 -8.453125 13.875 -5.484375 C 13.34375 -3.191406 12.722656 -1.644531 12.015625 -0.84375 C 11.304688 -0.0390625 10.195312 0.359375 8.6875 0.359375 Z M 8.6875 0.359375 "/></g></g></g><g fill="#000000" fill-opacity="1"><g transform="translate(283.492134, 193.91661)"><g><path d="M 12.484375 0.359375 C 9.460938 0.359375 7.050781 -0.734375 5.25 -2.921875 C 3.457031 -5.109375 2.5625 -7.976562 2.5625 -11.53125 C 2.5625 -15.425781 3.457031 -19.113281 5.25 -22.59375 C 7.050781 -26.082031 9.445312 -28.882812 12.4375 -31 C 15.4375 -33.113281 18.617188 -34.171875 21.984375 -34.171875 C 23.054688 -34.171875 23.773438 -33.960938 24.140625 -33.546875 C 24.503906 -33.140625 24.804688 -32.398438 25.046875 -31.328125 C 26.066406 -31.523438 27.140625 -31.625 28.265625 -31.625 C 30.648438 -31.625 31.84375 -30.769531 31.84375 -29.0625 C 31.84375 -28.039062 31.476562 -25.609375 30.75 -21.765625 C 29.625 -16.160156 29.0625 -12.265625 29.0625 -10.078125 C 29.0625 -9.347656 29.242188 -8.765625 29.609375 -8.328125 C 29.972656 -7.890625 30.445312 -7.671875 31.03125 -7.671875 C 31.957031 -7.671875 33.078125 -8.265625 34.390625 -9.453125 C 35.710938 -10.648438 37.492188 -12.585938 39.734375 -15.265625 C 40.316406 -15.941406 40.972656 -16.28125 41.703125 -16.28125 C 42.335938 -16.28125 42.835938 -15.988281 43.203125 -15.40625 C 43.566406 -14.820312 43.75 -14.019531 43.75 -13 C 43.75 -11.050781 43.285156 -9.539062 42.359375 -8.46875 C 40.359375 -5.988281 38.238281 -3.894531 36 -2.1875 C 33.757812 -0.488281 31.59375 0.359375 29.5 0.359375 C 27.894531 0.359375 26.421875 -0.1875 25.078125 -1.28125 C 23.742188 -2.375 22.738281 -3.867188 22.0625 -5.765625 C 19.519531 -1.679688 16.328125 0.359375 12.484375 0.359375 Z M 15.125 -7.015625 C 16.1875 -7.015625 17.203125 -7.644531 18.171875 -8.90625 C 19.148438 -10.175781 19.859375 -11.859375 20.296875 -13.953125 L 23 -27.390625 C 20.957031 -27.335938 19.070312 -26.566406 17.34375 -25.078125 C 15.613281 -23.597656 14.238281 -21.640625 13.21875 -19.203125 C 12.195312 -16.773438 11.6875 -14.195312 11.6875 -11.46875 C 11.6875 -9.957031 11.988281 -8.835938 12.59375 -8.109375 C 13.207031 -7.378906 14.050781 -7.015625 15.125 -7.015625 Z M 15.125 -7.015625 "/></g></g></g></svg>